solid OpenSCAD_Model
  facet normal -1 0 0
    outer loop
      vertex 0 0 0
      vertex 0 10.6 3.15
      vertex 0 10.6 0
    endloop
  endfacet
  facet normal -1 -0 0
    outer loop
      vertex 0 10.6 3.15
      vertex 0 0 0
      vertex 0 0 3.15
    endloop
  endfacet
  facet normal 0 0 1
    outer loop
      vertex 4.25 10.6 3.15
      vertex 4.7 18.05 3.15
      vertex 4.25 18.05 3.15
    endloop
  endfacet
  facet normal 0 0 1
    outer loop
      vertex 4.7 18.05 3.15
      vertex 4.25 10.6 3.15
      vertex 4.7 10.15 3.15
    endloop
  endfacet
  facet normal 0 0 1
    outer loop
      vertex 4.25 10.6 3.15
      vertex 0.45 10.15 3.15
      vertex 4.7 10.15 3.15
    endloop
  endfacet
  facet normal 0 0 1
    outer loop
      vertex 0.45 10.15 3.15
      vertex 0 10.6 3.15
      vertex 0.45 0.45 3.15
    endloop
  endfacet
  facet normal -0 0 1
    outer loop
      vertex 0 10.6 3.15
      vertex 0.45 10.15 3.15
      vertex 4.25 10.6 3.15
    endloop
  endfacet
  facet normal 0 0 1
    outer loop
      vertex 29.85 18.05 3.15
      vertex 29.4 18.05 3.15
      vertex 29.85 10.6 3.15
    endloop
  endfacet
  facet normal 0 0 1
    outer loop
      vertex 34.1 10.6 3.15
      vertex 33.65 10.15 3.15
      vertex 34.1 0 3.15
    endloop
  endfacet
  facet normal -0 0 1
    outer loop
      vertex 29.85 10.6 3.15
      vertex 33.65 10.15 3.15
      vertex 34.1 10.6 3.15
    endloop
  endfacet
  facet normal 0 0 1
    outer loop
      vertex 29.85 10.6 3.15
      vertex 29.4 10.15 3.15
      vertex 33.65 10.15 3.15
    endloop
  endfacet
  facet normal 0 0 1
    outer loop
      vertex 29.4 10.15 3.15
      vertex 29.85 10.6 3.15
      vertex 29.4 18.05 3.15
    endloop
  endfacet
  facet normal -0 0 1
    outer loop
      vertex 33.65 0.45 3.15
      vertex 34.1 0 3.15
      vertex 33.65 10.15 3.15
    endloop
  endfacet
  facet normal -0 0 1
    outer loop
      vertex 0.45 0.45 3.15
      vertex 34.1 0 3.15
      vertex 33.65 0.45 3.15
    endloop
  endfacet
  facet normal 0 0 1
    outer loop
      vertex 0.45 0.45 3.15
      vertex 0 0 3.15
      vertex 34.1 0 3.15
    endloop
  endfacet
  facet normal 0 0 1
    outer loop
      vertex 0 0 3.15
      vertex 0.45 0.45 3.15
      vertex 0 10.6 3.15
    endloop
  endfacet
  facet normal 1 -0 0
    outer loop
      vertex 34.1 0 3.15
      vertex 34.1 10.6 0
      vertex 34.1 10.6 3.15
    endloop
  endfacet
  facet normal 1 0 0
    outer loop
      vertex 34.1 10.6 0
      vertex 34.1 0 3.15
      vertex 34.1 0 0
    endloop
  endfacet
  facet normal 0 0 -1
    outer loop
      vertex 28.35 8.71 0
      vertex 6.25 10.6 0
      vertex 27.85 10.6 0
    endloop
  endfacet
  facet normal 0 0 -1
    outer loop
      vertex 5.75 8.71 0
      vertex 6.25 10.6 0
      vertex 28.35 8.71 0
    endloop
  endfacet
  facet normal 0 0 -1
    outer loop
      vertex 4.25 10.6 0
      vertex 6.25 10.6 0
      vertex 5.75 8.71 0
    endloop
  endfacet
  facet normal 0 0 -1
    outer loop
      vertex 6.25 10.6 0
      vertex 4.25 10.6 0
      vertex 6.25 18.05 0
    endloop
  endfacet
  facet normal -0 0 -1
    outer loop
      vertex 6.25 18.05 0
      vertex 4.25 10.6 0
      vertex 4.25 18.05 0
    endloop
  endfacet
  facet normal 0 0 -1
    outer loop
      vertex 28.35 8.71 0
      vertex 34.1 10.6 0
      vertex 34.1 0 0
    endloop
  endfacet
  facet normal -0 0 -1
    outer loop
      vertex 34.1 10.6 0
      vertex 28.35 8.71 0
      vertex 29.85 10.6 0
    endloop
  endfacet
  facet normal 0 0 -1
    outer loop
      vertex 28.35 8.71 0
      vertex 34.1 0 0
      vertex 28.35 1.89 0
    endloop
  endfacet
  facet normal 0 0 -1
    outer loop
      vertex 34.1 0 0
      vertex 5.75 1.89 0
      vertex 28.35 1.89 0
    endloop
  endfacet
  facet normal 0 0 -1
    outer loop
      vertex 0 10.6 0
      vertex 5.75 8.71 0
      vertex 5.75 1.89 0
    endloop
  endfacet
  facet normal 0 0 -1
    outer loop
      vertex 0 0 0
      vertex 5.75 1.89 0
      vertex 34.1 0 0
    endloop
  endfacet
  facet normal 0 0 -1
    outer loop
      vertex 0 10.6 0
      vertex 5.75 1.89 0
      vertex 0 0 0
    endloop
  endfacet
  facet normal 0 0 -1
    outer loop
      vertex 5.75 8.71 0
      vertex 0 10.6 0
      vertex 4.25 10.6 0
    endloop
  endfacet
  facet normal 0 0 -1
    outer loop
      vertex 27.85 10.6 0
      vertex 29.85 10.6 0
      vertex 28.35 8.71 0
    endloop
  endfacet
  facet normal 0 0 -1
    outer loop
      vertex 29.85 10.6 0
      vertex 27.85 10.6 0
      vertex 29.85 18.05 0
    endloop
  endfacet
  facet normal -0 0 -1
    outer loop
      vertex 29.85 18.05 0
      vertex 27.85 10.6 0
      vertex 27.85 18.05 0
    endloop
  endfacet
  facet normal 0 -1 0
    outer loop
      vertex 0 0 0
      vertex 34.1 0 3.15
      vertex 0 0 3.15
    endloop
  endfacet
  facet normal 0 -1 -0
    outer loop
      vertex 34.1 0 3.15
      vertex 0 0 0
      vertex 34.1 0 0
    endloop
  endfacet
  facet normal 0 1 -0
    outer loop
      vertex 34.1 10.6 0
      vertex 29.85 10.6 3.15
      vertex 34.1 10.6 3.15
    endloop
  endfacet
  facet normal 0 1 0
    outer loop
      vertex 29.85 10.6 3.15
      vertex 34.1 10.6 0
      vertex 29.85 10.6 0
    endloop
  endfacet
  facet normal 0 1 -0
    outer loop
      vertex 4.25 10.6 0
      vertex 0 10.6 3.15
      vertex 4.25 10.6 3.15
    endloop
  endfacet
  facet normal 0 1 0
    outer loop
      vertex 0 10.6 3.15
      vertex 4.25 10.6 0
      vertex 0 10.6 0
    endloop
  endfacet
  facet normal -1 0 0
    outer loop
      vertex 4.25 10.6 0
      vertex 4.25 18.05 3.15
      vertex 4.25 18.05 0
    endloop
  endfacet
  facet normal -1 -0 0
    outer loop
      vertex 4.25 18.05 3.15
      vertex 4.25 10.6 0
      vertex 4.25 10.6 3.15
    endloop
  endfacet
  facet normal 1 -0 0
    outer loop
      vertex 29.85 10.6 3.15
      vertex 29.85 18.05 0
      vertex 29.85 18.05 3.15
    endloop
  endfacet
  facet normal 1 0 0
    outer loop
      vertex 29.85 18.05 0
      vertex 29.85 10.6 3.15
      vertex 29.85 10.6 0
    endloop
  endfacet
  facet normal 0 1 0
    outer loop
      vertex 29.85 18.05 3.15
      vertex 29.4 18.05 1.425
      vertex 29.4 18.05 3.15
    endloop
  endfacet
  facet normal 0 1 -0
    outer loop
      vertex 29.85 18.05 0
      vertex 29.4 18.05 1.425
      vertex 29.85 18.05 3.15
    endloop
  endfacet
  facet normal 0 1 0
    outer loop
      vertex 27.85 18.05 0
      vertex 29.4 18.05 1.425
      vertex 29.85 18.05 0
    endloop
  endfacet
  facet normal 0 1 0
    outer loop
      vertex 29.4 18.05 1.425
      vertex 27.85 18.05 0
      vertex 27.85 18.05 1.425
    endloop
  endfacet
  facet normal 0 1 0
    outer loop
      vertex 6.25 18.05 1.425
      vertex 6.25 18.05 0
      vertex 4.7 18.05 1.425
    endloop
  endfacet
  facet normal 0 1 -0
    outer loop
      vertex 4.7 18.05 1.425
      vertex 4.25 18.05 3.15
      vertex 4.7 18.05 3.15
    endloop
  endfacet
  facet normal 0 1 0
    outer loop
      vertex 4.7 18.05 1.425
      vertex 4.25 18.05 0
      vertex 4.25 18.05 3.15
    endloop
  endfacet
  facet normal 0 1 0
    outer loop
      vertex 4.25 18.05 0
      vertex 4.7 18.05 1.425
      vertex 6.25 18.05 0
    endloop
  endfacet
  facet normal 1 -0 0
    outer loop
      vertex 4.7 10.15 3.15
      vertex 4.7 18.05 1.425
      vertex 4.7 18.05 3.15
    endloop
  endfacet
  facet normal 1 0 0
    outer loop
      vertex 4.7 18.05 1.425
      vertex 4.7 10.15 3.15
      vertex 4.7 10.15 1.425
    endloop
  endfacet
  facet normal -1 0 0
    outer loop
      vertex 29.4 10.15 1.425
      vertex 29.4 18.05 3.15
      vertex 29.4 18.05 1.425
    endloop
  endfacet
  facet normal -1 -0 0
    outer loop
      vertex 29.4 18.05 3.15
      vertex 29.4 10.15 1.425
      vertex 29.4 10.15 3.15
    endloop
  endfacet
  facet normal 0 0 1
    outer loop
      vertex 6.25 18.05 1.425
      vertex 4.7 18.05 1.425
      vertex 6.25 10.6 1.425
    endloop
  endfacet
  facet normal 0 0 1
    outer loop
      vertex 27.85 10.6 1.425
      vertex 29.4 18.05 1.425
      vertex 27.85 18.05 1.425
    endloop
  endfacet
  facet normal 0 0 1
    outer loop
      vertex 29.4 18.05 1.425
      vertex 27.85 10.6 1.425
      vertex 29.4 10.15 1.425
    endloop
  endfacet
  facet normal -0 0 1
    outer loop
      vertex 6.25 10.6 1.425
      vertex 29.4 10.15 1.425
      vertex 27.85 10.6 1.425
    endloop
  endfacet
  facet normal 0 0 1
    outer loop
      vertex 6.25 10.6 1.425
      vertex 4.7 10.15 1.425
      vertex 29.4 10.15 1.425
    endloop
  endfacet
  facet normal 0 0 1
    outer loop
      vertex 4.7 10.15 1.425
      vertex 6.25 10.6 1.425
      vertex 4.7 18.05 1.425
    endloop
  endfacet
  facet normal 1 -0 0
    outer loop
      vertex 6.25 10.6 1.425
      vertex 6.25 18.05 0
      vertex 6.25 18.05 1.425
    endloop
  endfacet
  facet normal 1 0 0
    outer loop
      vertex 6.25 18.05 0
      vertex 6.25 10.6 1.425
      vertex 6.25 10.6 0
    endloop
  endfacet
  facet normal -1 0 0
    outer loop
      vertex 27.85 10.6 0
      vertex 27.85 18.05 1.425
      vertex 27.85 18.05 0
    endloop
  endfacet
  facet normal -1 -0 0
    outer loop
      vertex 27.85 18.05 1.425
      vertex 27.85 10.6 0
      vertex 27.85 10.6 1.425
    endloop
  endfacet
  facet normal 0 1 -0
    outer loop
      vertex 27.85 10.6 0
      vertex 6.25 10.6 1.425
      vertex 27.85 10.6 1.425
    endloop
  endfacet
  facet normal 0 1 0
    outer loop
      vertex 6.25 10.6 1.425
      vertex 27.85 10.6 0
      vertex 6.25 10.6 0
    endloop
  endfacet
  facet normal 1 -0 0
    outer loop
      vertex 0.45 0.45 3.15
      vertex 0.45 10.15 0.299999
      vertex 0.45 10.15 3.15
    endloop
  endfacet
  facet normal 1 0 0
    outer loop
      vertex 0.45 10.15 0.299999
      vertex 0.45 0.45 3.15
      vertex 0.45 0.45 0.299999
    endloop
  endfacet
  facet normal -1 0 0
    outer loop
      vertex 33.65 0.45 0.299999
      vertex 33.65 10.15 3.15
      vertex 33.65 10.15 0.299999
    endloop
  endfacet
  facet normal -1 -0 0
    outer loop
      vertex 33.65 10.15 3.15
      vertex 33.65 0.45 0.299999
      vertex 33.65 0.45 3.15
    endloop
  endfacet
  facet normal 0 -1 0
    outer loop
      vertex 0.45 10.15 3.15
      vertex 4.7 10.15 1.425
      vertex 4.7 10.15 3.15
    endloop
  endfacet
  facet normal 0 -1 -0
    outer loop
      vertex 4.7 10.15 1.425
      vertex 0.45 10.15 0.299999
      vertex 29.4 10.15 1.425
    endloop
  endfacet
  facet normal 0 -1 0
    outer loop
      vertex 0.45 10.15 0.299999
      vertex 4.7 10.15 1.425
      vertex 0.45 10.15 3.15
    endloop
  endfacet
  facet normal 0 -1 0
    outer loop
      vertex 29.4 10.15 1.425
      vertex 33.65 10.15 3.15
      vertex 29.4 10.15 3.15
    endloop
  endfacet
  facet normal 0 -1 0
    outer loop
      vertex 29.4 10.15 1.425
      vertex 33.65 10.15 0.299999
      vertex 33.65 10.15 3.15
    endloop
  endfacet
  facet normal 0 -1 0
    outer loop
      vertex 33.65 10.15 0.299999
      vertex 29.4 10.15 1.425
      vertex 0.45 10.15 0.299999
    endloop
  endfacet
  facet normal 0 0 1
    outer loop
      vertex 33.65 10.15 0.299999
      vertex 28.35 8.71 0.299999
      vertex 33.65 0.45 0.299999
    endloop
  endfacet
  facet normal 0 0 1
    outer loop
      vertex 33.65 10.15 0.299999
      vertex 5.75 8.71 0.299999
      vertex 28.35 8.71 0.299999
    endloop
  endfacet
  facet normal 0 0 1
    outer loop
      vertex 5.75 8.71 0.299999
      vertex 0.45 10.15 0.299999
      vertex 5.75 1.89 0.299999
    endloop
  endfacet
  facet normal -0 0 1
    outer loop
      vertex 0.45 10.15 0.299999
      vertex 5.75 8.71 0.299999
      vertex 33.65 10.15 0.299999
    endloop
  endfacet
  facet normal -0 0 1
    outer loop
      vertex 28.35 1.89 0.299999
      vertex 33.65 0.45 0.299999
      vertex 28.35 8.71 0.299999
    endloop
  endfacet
  facet normal -0 0 1
    outer loop
      vertex 5.75 1.89 0.299999
      vertex 33.65 0.45 0.299999
      vertex 28.35 1.89 0.299999
    endloop
  endfacet
  facet normal 0 0 1
    outer loop
      vertex 5.75 1.89 0.299999
      vertex 0.45 0.45 0.299999
      vertex 33.65 0.45 0.299999
    endloop
  endfacet
  facet normal 0 0 1
    outer loop
      vertex 0.45 0.45 0.299999
      vertex 5.75 1.89 0.299999
      vertex 0.45 10.15 0.299999
    endloop
  endfacet
  facet normal 0 1 -0
    outer loop
      vertex 33.65 0.45 0.299999
      vertex 0.45 0.45 3.15
      vertex 33.65 0.45 3.15
    endloop
  endfacet
  facet normal 0 1 0
    outer loop
      vertex 0.45 0.45 3.15
      vertex 33.65 0.45 0.299999
      vertex 0.45 0.45 0.299999
    endloop
  endfacet
  facet normal 1 -0 0
    outer loop
      vertex 5.75 1.89 0.299999
      vertex 5.75 8.71 0
      vertex 5.75 8.71 0.299999
    endloop
  endfacet
  facet normal 1 0 0
    outer loop
      vertex 5.75 8.71 0
      vertex 5.75 1.89 0.299999
      vertex 5.75 1.89 0
    endloop
  endfacet
  facet normal -1 0 0
    outer loop
      vertex 28.35 1.89 0
      vertex 28.35 8.71 0.299999
      vertex 28.35 8.71 0
    endloop
  endfacet
  facet normal -1 -0 0
    outer loop
      vertex 28.35 8.71 0.299999
      vertex 28.35 1.89 0
      vertex 28.35 1.89 0.299999
    endloop
  endfacet
  facet normal 0 1 -0
    outer loop
      vertex 28.35 1.89 0
      vertex 5.75 1.89 0.299999
      vertex 28.35 1.89 0.299999
    endloop
  endfacet
  facet normal 0 1 0
    outer loop
      vertex 5.75 1.89 0.299999
      vertex 28.35 1.89 0
      vertex 5.75 1.89 0
    endloop
  endfacet
  facet normal 0 -1 0
    outer loop
      vertex 5.75 8.71 0
      vertex 28.35 8.71 0.299999
      vertex 5.75 8.71 0.299999
    endloop
  endfacet
  facet normal 0 -1 -0
    outer loop
      vertex 28.35 8.71 0.299999
      vertex 5.75 8.71 0
      vertex 28.35 8.71 0
    endloop
  endfacet
endsolid OpenSCAD_Model
