solid OpenSCAD_Model
  facet normal -1 0 0
    outer loop
      vertex 0 0 0
      vertex 0 10.6 0.299999
      vertex 0 10.6 0
    endloop
  endfacet
  facet normal -1 -0 0
    outer loop
      vertex 0 10.6 0.299999
      vertex 0 0 0
      vertex 0 0 0.299999
    endloop
  endfacet
  facet normal 0 0 1
    outer loop
      vertex 6.7 18.05 0.299999
      vertex 4.7 17.7 0.299999
      vertex 6.7 17.7 0.299999
    endloop
  endfacet
  facet normal 0 0 1
    outer loop
      vertex 4.25 10.6 0.299999
      vertex 4.7 17.7 0.299999
      vertex 4.25 18.05 0.299999
    endloop
  endfacet
  facet normal -0 0 1
    outer loop
      vertex 4.25 18.05 0.299999
      vertex 4.7 17.7 0.299999
      vertex 6.7 18.05 0.299999
    endloop
  endfacet
  facet normal 0 0 1
    outer loop
      vertex 29.4 10.15 0.299999
      vertex 5.75 8.71 0.299999
      vertex 28.35 8.71 0.299999
    endloop
  endfacet
  facet normal 0 0 1
    outer loop
      vertex 0 10.6 0.299999
      vertex 5.75 8.71 0.299999
      vertex 4.7 10.15 0.299999
    endloop
  endfacet
  facet normal -0 0 1
    outer loop
      vertex 4.7 10.15 0.299999
      vertex 5.75 8.71 0.299999
      vertex 29.4 10.15 0.299999
    endloop
  endfacet
  facet normal 0 0 1
    outer loop
      vertex 29.85 18.05 0.299999
      vertex 29.4 17.7 0.299999
      vertex 29.85 10.6 0.299999
    endloop
  endfacet
  facet normal -0 0 1
    outer loop
      vertex 27.4 18.05 0.299999
      vertex 29.4 17.7 0.299999
      vertex 29.85 18.05 0.299999
    endloop
  endfacet
  facet normal 0 0 1
    outer loop
      vertex 29.4 17.7 0.299999
      vertex 27.4 18.05 0.299999
      vertex 27.4 17.7 0.299999
    endloop
  endfacet
  facet normal 0 0 1
    outer loop
      vertex 29.4 10.15 0.299999
      vertex 34.1 10.6 0.299999
      vertex 29.85 10.6 0.299999
    endloop
  endfacet
  facet normal 0 0 1
    outer loop
      vertex 29.4 10.15 0.299999
      vertex 29.85 10.6 0.299999
      vertex 29.4 17.7 0.299999
    endloop
  endfacet
  facet normal 0 0 1
    outer loop
      vertex 28.35 8.71 0.299999
      vertex 34.1 10.6 0.299999
      vertex 29.4 10.15 0.299999
    endloop
  endfacet
  facet normal 0 0 1
    outer loop
      vertex 34.1 10.6 0.299999
      vertex 28.35 8.71 0.299999
      vertex 34.1 0 0.299999
    endloop
  endfacet
  facet normal -0 0 1
    outer loop
      vertex 28.35 1.89 0.299999
      vertex 34.1 0 0.299999
      vertex 28.35 8.71 0.299999
    endloop
  endfacet
  facet normal -0 0 1
    outer loop
      vertex 5.75 1.89 0.299999
      vertex 34.1 0 0.299999
      vertex 28.35 1.89 0.299999
    endloop
  endfacet
  facet normal 0 0 1
    outer loop
      vertex 4.7 17.7 0.299999
      vertex 4.25 10.6 0.299999
      vertex 4.7 10.15 0.299999
    endloop
  endfacet
  facet normal -0 0 1
    outer loop
      vertex 0 10.6 0.299999
      vertex 4.7 10.15 0.299999
      vertex 4.25 10.6 0.299999
    endloop
  endfacet
  facet normal 0 0 1
    outer loop
      vertex 5.75 8.71 0.299999
      vertex 0 10.6 0.299999
      vertex 5.75 1.89 0.299999
    endloop
  endfacet
  facet normal 0 0 1
    outer loop
      vertex 5.75 1.89 0.299999
      vertex 0 0 0.299999
      vertex 34.1 0 0.299999
    endloop
  endfacet
  facet normal 0 0 1
    outer loop
      vertex 0 0 0.299999
      vertex 5.75 1.89 0.299999
      vertex 0 10.6 0.299999
    endloop
  endfacet
  facet normal 1 -0 0
    outer loop
      vertex 34.1 0 0.299999
      vertex 34.1 10.6 0
      vertex 34.1 10.6 0.299999
    endloop
  endfacet
  facet normal 1 0 0
    outer loop
      vertex 34.1 10.6 0
      vertex 34.1 0 0.299999
      vertex 34.1 0 0
    endloop
  endfacet
  facet normal 0 1 -0
    outer loop
      vertex 34.1 10.6 0
      vertex 29.85 10.6 0.299999
      vertex 34.1 10.6 0.299999
    endloop
  endfacet
  facet normal 0 1 0
    outer loop
      vertex 29.85 10.6 0.299999
      vertex 34.1 10.6 0
      vertex 29.85 10.6 0
    endloop
  endfacet
  facet normal 0 1 -0
    outer loop
      vertex 4.25 10.6 0
      vertex 0 10.6 0.299999
      vertex 4.25 10.6 0.299999
    endloop
  endfacet
  facet normal 0 1 0
    outer loop
      vertex 0 10.6 0.299999
      vertex 4.25 10.6 0
      vertex 0 10.6 0
    endloop
  endfacet
  facet normal 0 0 -1
    outer loop
      vertex 28.35 8.71 0
      vertex 6.7 10.6 0
      vertex 27.4 10.6 0
    endloop
  endfacet
  facet normal 0 0 -1
    outer loop
      vertex 5.75 8.71 0
      vertex 6.7 10.6 0
      vertex 28.35 8.71 0
    endloop
  endfacet
  facet normal 0 0 -1
    outer loop
      vertex 4.25 10.6 0
      vertex 6.7 10.6 0
      vertex 5.75 8.71 0
    endloop
  endfacet
  facet normal 0 0 -1
    outer loop
      vertex 6.7 10.6 0
      vertex 4.25 10.6 0
      vertex 6.7 18.05 0
    endloop
  endfacet
  facet normal -0 0 -1
    outer loop
      vertex 6.7 18.05 0
      vertex 4.25 10.6 0
      vertex 4.25 18.05 0
    endloop
  endfacet
  facet normal 0 0 -1
    outer loop
      vertex 28.35 8.71 0
      vertex 34.1 10.6 0
      vertex 34.1 0 0
    endloop
  endfacet
  facet normal -0 0 -1
    outer loop
      vertex 34.1 10.6 0
      vertex 28.35 8.71 0
      vertex 29.85 10.6 0
    endloop
  endfacet
  facet normal 0 0 -1
    outer loop
      vertex 28.35 8.71 0
      vertex 34.1 0 0
      vertex 28.35 1.89 0
    endloop
  endfacet
  facet normal 0 0 -1
    outer loop
      vertex 34.1 0 0
      vertex 5.75 1.89 0
      vertex 28.35 1.89 0
    endloop
  endfacet
  facet normal 0 0 -1
    outer loop
      vertex 0 10.6 0
      vertex 5.75 8.71 0
      vertex 5.75 1.89 0
    endloop
  endfacet
  facet normal 0 0 -1
    outer loop
      vertex 0 0 0
      vertex 5.75 1.89 0
      vertex 34.1 0 0
    endloop
  endfacet
  facet normal 0 0 -1
    outer loop
      vertex 0 10.6 0
      vertex 5.75 1.89 0
      vertex 0 0 0
    endloop
  endfacet
  facet normal 0 0 -1
    outer loop
      vertex 5.75 8.71 0
      vertex 0 10.6 0
      vertex 4.25 10.6 0
    endloop
  endfacet
  facet normal 0 0 -1
    outer loop
      vertex 27.4 10.6 0
      vertex 29.85 10.6 0
      vertex 28.35 8.71 0
    endloop
  endfacet
  facet normal 0 0 -1
    outer loop
      vertex 29.85 10.6 0
      vertex 27.4 10.6 0
      vertex 29.85 18.05 0
    endloop
  endfacet
  facet normal -0 0 -1
    outer loop
      vertex 29.85 18.05 0
      vertex 27.4 10.6 0
      vertex 27.4 18.05 0
    endloop
  endfacet
  facet normal 0 -1 0
    outer loop
      vertex 0 0 0
      vertex 34.1 0 0.299999
      vertex 0 0 0.299999
    endloop
  endfacet
  facet normal 0 -1 -0
    outer loop
      vertex 34.1 0 0.299999
      vertex 0 0 0
      vertex 34.1 0 0
    endloop
  endfacet
  facet normal -1 0 0
    outer loop
      vertex 4.25 10.6 0
      vertex 4.25 18.05 0.299999
      vertex 4.25 18.05 0
    endloop
  endfacet
  facet normal -1 -0 0
    outer loop
      vertex 4.25 18.05 0.299999
      vertex 4.25 10.6 0
      vertex 4.25 10.6 0.299999
    endloop
  endfacet
  facet normal 1 -0 0
    outer loop
      vertex 29.85 10.6 0.299999
      vertex 29.85 18.05 0
      vertex 29.85 18.05 0.299999
    endloop
  endfacet
  facet normal 1 0 0
    outer loop
      vertex 29.85 18.05 0
      vertex 29.85 10.6 0.299999
      vertex 29.85 10.6 0
    endloop
  endfacet
  facet normal 0 1 -0
    outer loop
      vertex 29.85 18.05 0
      vertex 27.4 18.05 0.299999
      vertex 29.85 18.05 0.299999
    endloop
  endfacet
  facet normal 0 1 0
    outer loop
      vertex 27.4 18.05 0.299999
      vertex 29.85 18.05 0
      vertex 27.4 18.05 0
    endloop
  endfacet
  facet normal 0 1 -0
    outer loop
      vertex 6.7 18.05 0
      vertex 4.25 18.05 0.299999
      vertex 6.7 18.05 0.299999
    endloop
  endfacet
  facet normal 0 1 0
    outer loop
      vertex 4.25 18.05 0.299999
      vertex 6.7 18.05 0
      vertex 4.25 18.05 0
    endloop
  endfacet
  facet normal 1 -0 0
    outer loop
      vertex 6.7 17.7 0.299999
      vertex 6.7 18.05 0
      vertex 6.7 18.05 0.299999
    endloop
  endfacet
  facet normal 1 0 0
    outer loop
      vertex 6.7 10.6 0
      vertex 6.7 17.7 0.299999
      vertex 6.7 10.6 0.299999
    endloop
  endfacet
  facet normal 1 0 0
    outer loop
      vertex 6.7 17.7 0.299999
      vertex 6.7 10.6 0
      vertex 6.7 18.05 0
    endloop
  endfacet
  facet normal -1 0 0
    outer loop
      vertex 27.4 18.05 0
      vertex 27.4 17.7 0.299999
      vertex 27.4 18.05 0.299999
    endloop
  endfacet
  facet normal -1 0 0
    outer loop
      vertex 27.4 10.6 0
      vertex 27.4 17.7 0.299999
      vertex 27.4 18.05 0
    endloop
  endfacet
  facet normal -1 -0 0
    outer loop
      vertex 27.4 17.7 0.299999
      vertex 27.4 10.6 0
      vertex 27.4 10.6 0.299999
    endloop
  endfacet
  facet normal 0 1 -0
    outer loop
      vertex 27.4 10.6 0
      vertex 6.7 10.6 0.299999
      vertex 27.4 10.6 0.299999
    endloop
  endfacet
  facet normal 0 1 0
    outer loop
      vertex 6.7 10.6 0.299999
      vertex 27.4 10.6 0
      vertex 6.7 10.6 0
    endloop
  endfacet
  facet normal -1 0 0
    outer loop
      vertex 4.7 10.15 0.299999
      vertex 4.7 17.7 1.8
      vertex 4.7 17.7 0.299999
    endloop
  endfacet
  facet normal -1 -0 0
    outer loop
      vertex 4.7 17.7 1.8
      vertex 4.7 10.15 0.299999
      vertex 4.7 10.15 1.8
    endloop
  endfacet
  facet normal 0 0 1
    outer loop
      vertex 6.7 17.7 1.8
      vertex 4.7 17.7 1.8
      vertex 6.7 10.6 1.8
    endloop
  endfacet
  facet normal 0 0 1
    outer loop
      vertex 27.4 10.6 1.8
      vertex 29.4 17.7 1.8
      vertex 27.4 17.7 1.8
    endloop
  endfacet
  facet normal 0 0 1
    outer loop
      vertex 29.4 17.7 1.8
      vertex 27.4 10.6 1.8
      vertex 29.4 10.15 1.8
    endloop
  endfacet
  facet normal -0 0 1
    outer loop
      vertex 6.7 10.6 1.8
      vertex 29.4 10.15 1.8
      vertex 27.4 10.6 1.8
    endloop
  endfacet
  facet normal 0 0 1
    outer loop
      vertex 6.7 10.6 1.8
      vertex 4.7 10.15 1.8
      vertex 29.4 10.15 1.8
    endloop
  endfacet
  facet normal 0 0 1
    outer loop
      vertex 4.7 10.15 1.8
      vertex 6.7 10.6 1.8
      vertex 4.7 17.7 1.8
    endloop
  endfacet
  facet normal 1 -0 0
    outer loop
      vertex 6.7 10.6 1.8
      vertex 6.7 17.7 0.299999
      vertex 6.7 17.7 1.8
    endloop
  endfacet
  facet normal 1 0 0
    outer loop
      vertex 6.7 17.7 0.299999
      vertex 6.7 10.6 1.8
      vertex 6.7 10.6 0.299999
    endloop
  endfacet
  facet normal 0 1 -0
    outer loop
      vertex 6.7 17.7 0.299999
      vertex 4.7 17.7 1.8
      vertex 6.7 17.7 1.8
    endloop
  endfacet
  facet normal 0 1 0
    outer loop
      vertex 4.7 17.7 1.8
      vertex 6.7 17.7 0.299999
      vertex 4.7 17.7 0.299999
    endloop
  endfacet
  facet normal 0 1 -0
    outer loop
      vertex 27.4 10.6 0.299999
      vertex 6.7 10.6 1.8
      vertex 27.4 10.6 1.8
    endloop
  endfacet
  facet normal 0 1 0
    outer loop
      vertex 6.7 10.6 1.8
      vertex 27.4 10.6 0.299999
      vertex 6.7 10.6 0.299999
    endloop
  endfacet
  facet normal -1 0 0
    outer loop
      vertex 27.4 10.6 0.299999
      vertex 27.4 17.7 1.8
      vertex 27.4 17.7 0.299999
    endloop
  endfacet
  facet normal -1 -0 0
    outer loop
      vertex 27.4 17.7 1.8
      vertex 27.4 10.6 0.299999
      vertex 27.4 10.6 1.8
    endloop
  endfacet
  facet normal 1 -0 0
    outer loop
      vertex 29.4 10.15 1.8
      vertex 29.4 17.7 0.299999
      vertex 29.4 17.7 1.8
    endloop
  endfacet
  facet normal 1 0 0
    outer loop
      vertex 29.4 17.7 0.299999
      vertex 29.4 10.15 1.8
      vertex 29.4 10.15 0.299999
    endloop
  endfacet
  facet normal 0 1 -0
    outer loop
      vertex 29.4 17.7 0.299999
      vertex 27.4 17.7 1.8
      vertex 29.4 17.7 1.8
    endloop
  endfacet
  facet normal 0 1 0
    outer loop
      vertex 27.4 17.7 1.8
      vertex 29.4 17.7 0.299999
      vertex 27.4 17.7 0.299999
    endloop
  endfacet
  facet normal 0 -1 0
    outer loop
      vertex 4.7 10.15 0.299999
      vertex 29.4 10.15 1.8
      vertex 4.7 10.15 1.8
    endloop
  endfacet
  facet normal 0 -1 -0
    outer loop
      vertex 29.4 10.15 1.8
      vertex 4.7 10.15 0.299999
      vertex 29.4 10.15 0.299999
    endloop
  endfacet
  facet normal 1 -0 0
    outer loop
      vertex 5.75 1.89 0.299999
      vertex 5.75 8.71 0
      vertex 5.75 8.71 0.299999
    endloop
  endfacet
  facet normal 1 0 0
    outer loop
      vertex 5.75 8.71 0
      vertex 5.75 1.89 0.299999
      vertex 5.75 1.89 0
    endloop
  endfacet
  facet normal -1 0 0
    outer loop
      vertex 28.35 1.89 0
      vertex 28.35 8.71 0.299999
      vertex 28.35 8.71 0
    endloop
  endfacet
  facet normal -1 -0 0
    outer loop
      vertex 28.35 8.71 0.299999
      vertex 28.35 1.89 0
      vertex 28.35 1.89 0.299999
    endloop
  endfacet
  facet normal 0 -1 0
    outer loop
      vertex 5.75 8.71 0
      vertex 28.35 8.71 0.299999
      vertex 5.75 8.71 0.299999
    endloop
  endfacet
  facet normal 0 -1 -0
    outer loop
      vertex 28.35 8.71 0.299999
      vertex 5.75 8.71 0
      vertex 28.35 8.71 0
    endloop
  endfacet
  facet normal 0 1 -0
    outer loop
      vertex 28.35 1.89 0
      vertex 5.75 1.89 0.299999
      vertex 28.35 1.89 0.299999
    endloop
  endfacet
  facet normal 0 1 0
    outer loop
      vertex 5.75 1.89 0.299999
      vertex 28.35 1.89 0
      vertex 5.75 1.89 0
    endloop
  endfacet
endsolid OpenSCAD_Model
