solid OpenSCAD_Model
  facet normal -1 0 0
    outer loop
      vertex 0 0 0
      vertex 0 10.6 0.299999
      vertex 0 10.6 0
    endloop
  endfacet
  facet normal -1 -0 0
    outer loop
      vertex 0 10.6 0.299999
      vertex 0 0 0
      vertex 0 0 0.299999
    endloop
  endfacet
  facet normal 0 0 1
    outer loop
      vertex 6.7 18.05 0.299999
      vertex 4.25 18.05 0.299999
      vertex 6.7 10.6 0.299999
    endloop
  endfacet
  facet normal 0 0 1
    outer loop
      vertex 29.85 18.05 0.299999
      vertex 27.4 18.05 0.299999
      vertex 29.85 10.6 0.299999
    endloop
  endfacet
  facet normal -0 0 1
    outer loop
      vertex 29.85 10.6 0.299999
      vertex 34.1 0 0.299999
      vertex 34.1 10.6 0.299999
    endloop
  endfacet
  facet normal 0 0 1
    outer loop
      vertex 27.4 10.6 0.299999
      vertex 29.85 10.6 0.299999
      vertex 27.4 18.05 0.299999
    endloop
  endfacet
  facet normal -0 0 1
    outer loop
      vertex 27.4 10.6 0.299999
      vertex 34.1 0 0.299999
      vertex 29.85 10.6 0.299999
    endloop
  endfacet
  facet normal -0 0 1
    outer loop
      vertex 6.7 10.6 0.299999
      vertex 34.1 0 0.299999
      vertex 27.4 10.6 0.299999
    endloop
  endfacet
  facet normal 0 0 1
    outer loop
      vertex 4.25 10.6 0.299999
      vertex 6.7 10.6 0.299999
      vertex 4.25 18.05 0.299999
    endloop
  endfacet
  facet normal 0 0 1
    outer loop
      vertex 0 0 0.299999
      vertex 6.7 10.6 0.299999
      vertex 4.25 10.6 0.299999
    endloop
  endfacet
  facet normal 0 0 1
    outer loop
      vertex 0 0 0.299999
      vertex 4.25 10.6 0.299999
      vertex 0 10.6 0.299999
    endloop
  endfacet
  facet normal 0 0 1
    outer loop
      vertex 6.7 10.6 0.299999
      vertex 0 0 0.299999
      vertex 34.1 0 0.299999
    endloop
  endfacet
  facet normal 1 -0 0
    outer loop
      vertex 34.1 0 0.299999
      vertex 34.1 10.6 0
      vertex 34.1 10.6 0.299999
    endloop
  endfacet
  facet normal 1 0 0
    outer loop
      vertex 34.1 10.6 0
      vertex 34.1 0 0.299999
      vertex 34.1 0 0
    endloop
  endfacet
  facet normal 0 1 -0
    outer loop
      vertex 34.1 10.6 0
      vertex 29.85 10.6 0.299999
      vertex 34.1 10.6 0.299999
    endloop
  endfacet
  facet normal 0 1 0
    outer loop
      vertex 29.85 10.6 0.299999
      vertex 34.1 10.6 0
      vertex 29.85 10.6 0
    endloop
  endfacet
  facet normal 0 1 -0
    outer loop
      vertex 4.25 10.6 0
      vertex 0 10.6 0.299999
      vertex 4.25 10.6 0.299999
    endloop
  endfacet
  facet normal 0 1 0
    outer loop
      vertex 0 10.6 0.299999
      vertex 4.25 10.6 0
      vertex 0 10.6 0
    endloop
  endfacet
  facet normal 0 0 -1
    outer loop
      vertex 34.1 0 0
      vertex 29.85 10.6 0
      vertex 34.1 10.6 0
    endloop
  endfacet
  facet normal 0 0 -1
    outer loop
      vertex 29.85 10.6 0
      vertex 27.4 10.6 0
      vertex 29.85 18.05 0
    endloop
  endfacet
  facet normal 0 0 -1
    outer loop
      vertex 34.1 0 0
      vertex 27.4 10.6 0
      vertex 29.85 10.6 0
    endloop
  endfacet
  facet normal 0 0 -1
    outer loop
      vertex 34.1 0 0
      vertex 6.7 10.6 0
      vertex 27.4 10.6 0
    endloop
  endfacet
  facet normal 0 0 -1
    outer loop
      vertex 6.7 10.6 0
      vertex 4.25 10.6 0
      vertex 6.7 18.05 0
    endloop
  endfacet
  facet normal 0 0 -1
    outer loop
      vertex 0 0 0
      vertex 6.7 10.6 0
      vertex 34.1 0 0
    endloop
  endfacet
  facet normal -0 0 -1
    outer loop
      vertex 6.7 10.6 0
      vertex 0 0 0
      vertex 4.25 10.6 0
    endloop
  endfacet
  facet normal -0 0 -1
    outer loop
      vertex 4.25 10.6 0
      vertex 0 0 0
      vertex 0 10.6 0
    endloop
  endfacet
  facet normal -0 0 -1
    outer loop
      vertex 29.85 18.05 0
      vertex 27.4 10.6 0
      vertex 27.4 18.05 0
    endloop
  endfacet
  facet normal -0 0 -1
    outer loop
      vertex 6.7 18.05 0
      vertex 4.25 10.6 0
      vertex 4.25 18.05 0
    endloop
  endfacet
  facet normal 0 -1 0
    outer loop
      vertex 0 0 0
      vertex 34.1 0 0.299999
      vertex 0 0 0.299999
    endloop
  endfacet
  facet normal 0 -1 -0
    outer loop
      vertex 34.1 0 0.299999
      vertex 0 0 0
      vertex 34.1 0 0
    endloop
  endfacet
  facet normal -1 0 0
    outer loop
      vertex 4.25 10.6 0
      vertex 4.25 18.05 0.299999
      vertex 4.25 18.05 0
    endloop
  endfacet
  facet normal -1 -0 0
    outer loop
      vertex 4.25 18.05 0.299999
      vertex 4.25 10.6 0
      vertex 4.25 10.6 0.299999
    endloop
  endfacet
  facet normal 1 -0 0
    outer loop
      vertex 29.85 10.6 0.299999
      vertex 29.85 18.05 0
      vertex 29.85 18.05 0.299999
    endloop
  endfacet
  facet normal 1 0 0
    outer loop
      vertex 29.85 18.05 0
      vertex 29.85 10.6 0.299999
      vertex 29.85 10.6 0
    endloop
  endfacet
  facet normal 0 1 -0
    outer loop
      vertex 29.85 18.05 0
      vertex 27.4 18.05 0.299999
      vertex 29.85 18.05 0.299999
    endloop
  endfacet
  facet normal 0 1 0
    outer loop
      vertex 27.4 18.05 0.299999
      vertex 29.85 18.05 0
      vertex 27.4 18.05 0
    endloop
  endfacet
  facet normal 0 1 -0
    outer loop
      vertex 6.7 18.05 0
      vertex 4.25 18.05 0.299999
      vertex 6.7 18.05 0.299999
    endloop
  endfacet
  facet normal 0 1 0
    outer loop
      vertex 4.25 18.05 0.299999
      vertex 6.7 18.05 0
      vertex 4.25 18.05 0
    endloop
  endfacet
  facet normal 1 -0 0
    outer loop
      vertex 6.7 10.6 0.299999
      vertex 6.7 18.05 0
      vertex 6.7 18.05 0.299999
    endloop
  endfacet
  facet normal 1 0 0
    outer loop
      vertex 6.7 18.05 0
      vertex 6.7 10.6 0.299999
      vertex 6.7 10.6 0
    endloop
  endfacet
  facet normal -1 0 0
    outer loop
      vertex 27.4 10.6 0
      vertex 27.4 18.05 0.299999
      vertex 27.4 18.05 0
    endloop
  endfacet
  facet normal -1 -0 0
    outer loop
      vertex 27.4 18.05 0.299999
      vertex 27.4 10.6 0
      vertex 27.4 10.6 0.299999
    endloop
  endfacet
  facet normal 0 1 -0
    outer loop
      vertex 27.4 10.6 0
      vertex 6.7 10.6 0.299999
      vertex 27.4 10.6 0.299999
    endloop
  endfacet
  facet normal 0 1 0
    outer loop
      vertex 6.7 10.6 0.299999
      vertex 27.4 10.6 0
      vertex 6.7 10.6 0
    endloop
  endfacet
endsolid OpenSCAD_Model
